# xmcd
#
# Track frame offsets:
# 150
# 5808
# 22182
# 41690
# 51306
# 57651
# 74873
# 98689
# 109310
# 119411
# 133984
# 146516
# 161011
# 173355
# 183807
# 203489
# 217009
# 225844
#
# Disc length: 3159 seconds
#
#
# Revision: 0
# Processed by: cddbd v1.5.2PL0 Copyright (c) Steve Scherf et al.
# Submitted via: FreeRIP 2.96 
#
DISCID=0c0c5512
DTITLE=Jonny Cash - Ring Of Fire (disk 2)
DYEAR=1900
DGENRE=Country
TTITLE0=Entr'acte
TTITLE1=I've Been Everywhere
TTITLE2=Sunday Mornin' Comin' Down
TTITLE3=Temptation
TTITLE4=I Feel Better All Over
TTITLE5=A  Boy Named Sue
TTITLE6=Going To Memphis
TTITLE7=Delia's Gone
TTITLE8=Austin Prison
TTITLE9=Orleans Parish Prison
TTITLE10=Folson Prison
TTITLE11=Man In Black
TTITLE12=All Over Again
TTITLE13=I Walk The Line
TTITLE14=The Man Comes Around
TTITLE15=Waiting On The Far Side Banks of Jordan
TTITLE16=Why Me
TTITLE17=Hey Porter
EXTD=
EXTT0=
EXTT1=
EXTT2=
EXTT3=
EXTT4=
EXTT5=
EXTT6=
EXTT7=
EXTT8=
EXTT9=
EXTT10=
EXTT11=
EXTT12=
EXTT13=
EXTT14=
EXTT15=
EXTT16=
EXTT17=
PLAYORDER=
